<svg width="81" height="95" viewBox="0 0 81 95" fill="none" xmlns="http://www.w3.org/2000/svg">
<path opacity="0.5" d="M46.8485 92.0493C61.7425 89.0526 81 78.2985 81 50.4899C81 25.1835 62.5449 8.33195 49.2742 0.588897C46.3296 -1.12932 42.8824 1.13031 42.8824 4.54904V13.2935C42.8824 20.189 39.994 32.7756 31.9679 38.0108C27.8703 40.6836 23.4448 36.6832 22.9468 31.8036L22.5379 27.7968C22.0625 23.1387 17.336 20.311 13.6269 23.151C6.96347 28.253 0 37.1873 0 50.4899C0 84.4979 25.2 93 37.7998 93C38.5327 93 39.3031 92.978 40.105 92.9316C42.2296 92.6628 40.105 93.406 46.8485 92.0493Z" fill="#464646"/>
<path d="M23.9367 74.9412C23.1233 87.4809 32.8042 92.0032 38.9126 92.9358C41.0277 92.8028 38.8818 93.4106 45.628 92.4845C50.6279 91.0448 56.2317 86.8799 56.8675 77.0771C57.2703 70.8656 53.6679 66.7838 50.7673 64.7941C49.8799 64.1852 48.7634 64.8069 48.6103 65.8857C48.1258 69.3059 44.7045 71.8334 42.6639 69.0766C40.8609 66.6404 40.2593 63.2132 40.3993 61.055L40.5822 58.2348C40.6925 56.5346 39.0832 55.2987 37.5898 56.0733C32.0367 58.9523 24.5729 65.1322 23.9367 74.9412Z" fill="#464646"/>
</svg>
