<svg width="58" height="99" viewBox="0 0 58 99" fill="none" xmlns="http://www.w3.org/2000/svg">
<path d="M29.0176 6L34.9101 11.8925C38.0357 15.0181 39.7916 19.2573 39.7916 23.6776C39.7916 28.0979 38.0357 32.3371 34.9101 35.4627L29.0176 41.3552L23.0939 35.4315C19.9819 32.3031 18.2376 28.0682 18.2435 23.6556C18.2493 19.2429 20.0048 15.0127 23.125 11.8925L29.0176 6Z" stroke="#626262" stroke-width="8" stroke-miterlimit="10"/>
<path d="M54 31.9946V40.3279C53.9888 44.7026 52.258 48.8975 49.1812 52.0073C46.1044 55.1172 41.9282 56.8926 37.5539 56.9505H29.2205V48.6612C29.2202 44.2789 30.9458 40.0728 34.0239 36.9534C37.102 33.8341 41.2848 32.0526 45.6667 31.9946H54Z" stroke="#626262" stroke-width="8" stroke-miterlimit="10"/>
<path d="M4.04409 31.9946H12.3333C16.7156 31.9942 20.9218 33.7199 24.0411 36.798C27.1604 39.876 28.9419 44.0588 28.9999 48.4408V56.7741H20.6666C16.2463 56.7741 12.0071 55.0181 8.88154 51.8925C5.75594 48.767 4 44.5277 4 40.1075V31.9946H4.04409Z" stroke="#626262" stroke-width="8" stroke-miterlimit="10"/>
<path d="M53.9558 56.9946V65.3279C53.9558 67.5166 53.5247 69.6839 52.6871 71.706C51.8496 73.7281 50.6219 75.5654 49.0743 77.113C47.5266 78.6606 45.6893 79.8883 43.6672 80.7259C41.6451 81.5635 39.4779 81.9945 37.2892 81.9945H29V73.6612C29 69.2486 30.7499 65.0161 33.8659 61.8917C36.982 58.7674 41.2099 57.0063 45.6225 56.9946H53.9558Z" stroke="#626262" stroke-width="8" stroke-miterlimit="10"/>
<path d="M4.04409 56.9946H12.3333C16.7459 56.9946 20.9785 58.7445 24.1028 61.8606C27.2271 64.9766 28.9882 69.2045 28.9999 73.6171V81.9505H20.6666C16.2463 81.9505 12.0071 80.1945 8.88154 77.0689C5.75594 73.9433 4 69.7041 4 65.2838V56.9946H4.04409Z" stroke="#626262" stroke-width="8" stroke-miterlimit="10"/>
<path d="M29 98.6167V40.3276" stroke="#626262" stroke-width="8" stroke-miterlimit="10"/>
</svg>
