<svg width="59" height="59" viewBox="0 0 59 59" fill="none" xmlns="http://www.w3.org/2000/svg">
<path d="M49.375 19.5625V13.6C49.375 9.88967 49.375 8.03447 48.6529 6.61732C48.0179 5.37072 47.0042 4.35723 45.7578 3.72209C44.3407 3 42.4853 3 38.775 3H13.6C9.88967 3 8.03447 3 6.61732 3.72209C5.37072 4.35723 4.35723 5.37072 3.72209 6.61732C3 8.03447 3 9.88967 3 13.6V49.375L16.25 42.75M56 56L48.733 51.1551C47.7403 50.4936 47.2441 50.1627 46.7071 49.9282C46.2304 49.7202 45.7312 49.5691 45.2191 49.4777C44.6424 49.375 44.0458 49.375 42.853 49.375H26.85C23.1397 49.375 21.2845 49.375 19.8673 48.6529C18.6207 48.0179 17.6072 47.0042 16.9721 45.7578C16.25 44.3407 16.25 42.4853 16.25 38.775V30.1625C16.25 26.4522 16.25 24.5968 16.9721 23.1798C17.6072 21.9332 18.6207 20.9197 19.8673 20.2846C21.2845 19.5625 23.1397 19.5625 26.85 19.5625H45.4C49.1103 19.5625 50.9657 19.5625 52.3828 20.2846C53.6292 20.9197 54.6429 21.9332 55.2779 23.1798C56 24.5968 56 26.4522 56 30.1625V56Z" stroke="white" stroke-width="5" stroke-linecap="round" stroke-linejoin="round"/>
</svg>
