<svg width="70" height="70" viewBox="0 0 70 70" fill="none" xmlns="http://www.w3.org/2000/svg">
<path d="M35 67C52.6731 67 67 52.6731 67 35C67 17.3269 52.6731 3 35 3C17.3269 3 3 17.3269 3 35C3 52.6731 17.3269 67 35 67Z" stroke="#626262" stroke-width="5"/>
<path d="M34.9999 45.6666C40.891 45.6666 45.6666 40.891 45.6666 34.9999C45.6666 29.1089 40.891 24.3333 34.9999 24.3333C29.1089 24.3333 24.3333 29.1089 24.3333 34.9999C24.3333 40.891 29.1089 45.6666 34.9999 45.6666Z" stroke="#626262" stroke-width="5"/>
<path d="M45.6667 35.0001L47.0545 33.3677C50.3288 29.5156 56.6147 32.1887 56.1115 37.2191C55.5867 42.465 62.3437 45.0225 65.4243 40.7441L67.0001 38.5556" stroke="#626262" stroke-width="5"/>
<path d="M24.3333 36.7778L24.2766 37.0804C23.1328 43.1803 14.4261 43.2678 13.1603 37.1917L13.0344 36.5873C12.0145 31.6916 5.48096 30.6584 3 35.0001" stroke="#626262" stroke-width="5"/>
<path d="M26.111 17.2223C27.0929 17.2223 27.8888 16.4264 27.8888 15.4445C27.8888 14.4627 27.0929 13.6667 26.111 13.6667C25.1292 13.6667 24.3333 14.4627 24.3333 15.4445C24.3333 16.4264 25.1292 17.2223 26.111 17.2223Z" stroke="#626262" stroke-width="2.5"/>
<path d="M50.9999 24.3334C51.9818 24.3334 52.7777 23.5374 52.7777 22.5556C52.7777 21.5738 51.9818 20.7778 50.9999 20.7778C50.0181 20.7778 49.2222 21.5738 49.2222 22.5556C49.2222 23.5374 50.0181 24.3334 50.9999 24.3334Z" stroke="#626262" stroke-width="2.5"/>
<path d="M40.3334 13.6666C41.3153 13.6666 42.1112 12.8707 42.1112 11.8889C42.1112 10.907 41.3153 10.1111 40.3334 10.1111C39.3516 10.1111 38.5557 10.907 38.5557 11.8889C38.5557 12.8707 39.3516 13.6666 40.3334 13.6666Z" stroke="#626262" stroke-width="2.5"/>
</svg>
