<svg width="75" height="66" viewBox="0 0 75 66" fill="none" xmlns="http://www.w3.org/2000/svg">
<path d="M58.223 33.8958H55.4374C52.5533 33.8958 51.1115 33.8958 49.9161 34.5726C48.721 35.2494 47.9789 36.4858 46.4953 38.9586L46.3879 39.1377C45.0059 41.4412 44.3145 42.5932 43.3092 42.574C42.3036 42.5553 41.656 41.3783 40.3616 39.0243L34.4965 28.3607C33.2893 26.1658 32.6859 25.0683 31.7216 25.0163C30.7577 24.9642 30.0396 25.9903 28.6031 28.0423L27.6194 29.448C26.0937 31.6274 25.3308 32.7171 24.199 33.3063C23.0671 33.8958 21.7369 33.8958 19.0764 33.8958H16.511" stroke="#626262" stroke-width="3.75" stroke-linecap="round"/>
<path d="M37.367 11.304L35.4886 13.1119C35.9801 13.6225 36.6583 13.911 37.367 13.911C38.0758 13.911 38.754 13.6225 39.2455 13.1119L37.367 11.304ZM4.88956 38.7499C5.65052 39.972 7.25828 40.346 8.48055 39.5851C9.70281 38.8242 10.0768 37.2162 9.31579 35.9941L4.88956 38.7499ZM18.3522 47.0068C17.3329 45.99 15.6823 45.9918 14.6654 47.0113C13.6485 48.0304 13.6505 49.6812 14.6698 50.6979L18.3522 47.0068ZM5.21401 23.9444C5.21401 14.2016 9.58411 8.15641 15.0483 6.0779C20.5274 3.99375 28.1601 5.49772 35.4886 13.1119L39.2455 9.49617C30.9326 0.859444 21.1852 -1.83495 13.1946 1.20457C5.18919 4.24969 0 12.6501 0 23.9444H5.21401ZM49.5421 59.9657C54.7293 55.8761 60.9472 50.3934 65.8915 44.2677C70.7805 38.2104 74.7341 31.1461 74.7341 23.9443H69.5201C69.5201 29.3355 66.488 35.2269 61.8343 40.9929C57.2359 46.6901 51.3541 51.8975 46.3143 55.8709L49.5421 59.9657ZM74.7341 23.9443C74.7341 12.6501 69.5448 4.24966 61.5395 1.20454C53.5489 -1.83491 43.8015 0.859444 35.4886 9.49617L39.2455 13.1119C46.5739 5.49772 54.2065 3.99375 59.6858 6.0779C65.15 8.15637 69.5201 14.2016 69.5201 23.9443H74.7341ZM25.1921 59.9653C29.6215 63.4573 32.6748 66 37.367 66V60.786C34.8271 60.786 33.2504 59.6789 28.42 55.8709L25.1921 59.9653ZM46.3143 55.8709C41.4837 59.6789 39.907 60.786 37.367 60.786V66C42.0593 66 45.1126 63.4573 49.5421 59.9657L46.3143 55.8709ZM9.31579 35.9941C6.7227 31.8291 5.21401 27.7476 5.21401 23.9444H0C0 29.0887 2.01796 34.1376 4.88956 38.7499L9.31579 35.9941ZM28.42 55.8709C25.2326 53.3581 21.6935 50.3399 18.3522 47.0068L14.6698 50.6979C18.1916 54.2115 21.8925 57.3642 25.1921 59.9653L28.42 55.8709Z" fill="#626262"/>
</svg>
