<svg width="68" height="68" viewBox="0 0 68 68" fill="none" xmlns="http://www.w3.org/2000/svg">
<path fill-rule="evenodd" clip-rule="evenodd" d="M53.2931 8.01795C53.139 7.65823 52.9784 7.47359 52.4614 6.95683C51.2765 5.77196 49.3557 5.77196 48.1708 6.95683C46.9859 8.1417 46.9859 10.0628 48.1708 11.2477L50.3161 13.3931L43.6621 20.0469C44.4999 20.6008 45.2912 21.2408 46.0251 21.9748C46.7593 22.7088 47.3993 23.5001 47.9531 24.3377L54.6071 17.6839L56.7524 19.8294C57.9373 21.0143 59.8585 21.0143 61.043 19.8294C62.2279 18.6445 62.2279 16.7234 61.043 15.5385C60.5264 15.0218 60.3419 14.861 59.9818 14.7069C59.5615 14.5266 58.6735 14.2818 56.7524 14.2818H53.7183V11.2477C53.7183 9.32661 53.4735 8.43863 53.2931 8.01795ZM50.4451 30.4273C51.2943 34.355 51.0645 38.6383 50.2566 42.598C48.7743 49.8632 45.1432 57.1835 40.7591 61.5675C31.6852 70.6414 16.7487 69.9335 7.40764 60.5925C-1.93349 51.2512 -2.64144 36.3146 6.43244 27.2407C10.8164 22.8569 18.1366 19.2255 25.4019 17.7433C29.3619 16.9354 33.6448 16.7056 37.5729 17.5547L42.1006 13.0269C40.4844 9.64349 41.0775 5.46839 43.8798 2.66599C47.4345 -0.888663 53.1976 -0.888663 56.7524 2.66599C56.7665 2.68031 56.7811 2.69483 56.7961 2.7096C57.3551 3.26811 58.237 4.14909 58.8706 5.62758C59.2156 6.43266 59.4592 7.34078 59.6076 8.39223C60.659 8.54094 61.5672 8.78432 62.3723 9.12935C63.8509 9.76299 64.732 10.6449 65.2903 11.2041C65.3052 11.2188 65.3198 11.2334 65.334 11.2477C68.8887 14.8023 68.8887 20.5655 65.334 24.1202C62.5317 26.9227 58.3564 27.5158 54.9732 25.8992L50.4451 30.4273ZM26.615 23.689C20.254 24.9867 14.095 28.1598 10.7233 31.5317C4.28597 37.9688 4.45123 49.0541 11.6985 56.3015C18.9457 63.549 30.031 63.714 36.4685 57.2769C39.84 53.905 43.0132 47.7458 44.311 41.3852C45.6318 34.9113 44.8135 29.3447 41.7345 26.2657C38.6551 23.1863 33.089 22.3682 26.615 23.689Z" fill="#626262"/>
</svg>
