<svg width="55" height="61" viewBox="0 0 55 61" fill="none" xmlns="http://www.w3.org/2000/svg">
<path d="M3 51.8889V12.7778C3 9.35525 3 7.64396 3.66759 6.33673C4.2548 5.18683 5.1918 4.25195 6.34431 3.66608C7.65451 3 9.36969 3 12.8 3H42.2C45.6303 3 47.3456 3 48.6558 3.66608C49.8082 4.25195 50.7453 5.18683 51.3324 6.33673C52 7.64396 52 9.35525 52 12.7778V45.7778H9.125C5.74225 45.7778 3 48.5137 3 51.8889ZM3 51.8889C3 55.2641 5.74225 58 9.125 58H52M18.3125 15.2222H36.6875M18.3125 27.4444H36.6875M48.9375 45.7778V58" stroke="white" stroke-width="5" stroke-linecap="round" stroke-linejoin="round"/>
</svg>
