<svg width="53" height="50" viewBox="0 0 53 50" fill="none" xmlns="http://www.w3.org/2000/svg">
<path fill-rule="evenodd" clip-rule="evenodd" d="M47.3532 20.0048L7.47179 2.43885C6.42977 1.906 5.15456 1.85538 4.06157 2.30346C2.96857 2.75155 2.19769 3.64095 2 4.68203C2.01365 5.0279 2.10902 5.36756 2.28007 5.67968L9.87336 21.7155C10.2545 22.7802 10.4619 23.8868 10.4895 25.0022C10.462 26.1177 10.2546 27.2243 9.87336 28.289L2.28007 44.3248C2.10902 44.6369 2.01365 44.9766 2 45.3224C2.19909 46.362 2.96983 47.2498 4.06164 47.6969C5.15347 48.1443 6.427 48.0938 7.46829 47.5625L47.3532 29.9966C49.5773 29.0935 51 27.1444 51 25.0007C51 22.857 49.5773 20.9079 47.3532 20.0048Z" fill="white" stroke="white" stroke-width="3.6" stroke-linecap="round" stroke-linejoin="round"/>
</svg>
