<svg width="60" height="60" viewBox="0 0 60 60" fill="none" xmlns="http://www.w3.org/2000/svg">
<path fill-rule="evenodd" clip-rule="evenodd" d="M30 36C41.355 36 50.874 42.642 53.352 54H6.64801C9.12601 42.642 18.645 36 30 36ZM18 18C18 11.382 23.382 6 30 6C36.618 6 42 11.382 42 18C42 24.618 36.618 30 30 30C23.382 30 18 24.618 18 18ZM41.274 32.0189C45.372 28.7219 48 23.67 48 18C48 8.058 39.942 0 30 0C20.058 0 12 8.058 12 18C12 23.67 14.628 28.7219 18.726 32.0189C7.74901 36.1439 0 46.335 0 60H60C60 46.335 52.251 36.1439 41.274 32.0189Z" fill="white"/>
</svg>
